<?xml version="1.0" standalone="no"?>
<!DOCTYPE svg PUBLIC "-//W3C//DTD SVG 20010904//EN"
 "http://www.w3.org/TR/2001/REC-SVG-20010904/DTD/svg10.dtd">
<svg version="1.0" xmlns="http://www.w3.org/2000/svg"
 width="444.000000pt" height="444.000000pt" viewBox="0 0 444.000000 444.000000"
 preserveAspectRatio="xMidYMid meet">
<metadata>
Created by potrace 1.11, written by Peter Selinger 2001-2013
</metadata>
<g transform="translate(0.000000,444.000000) scale(0.100000,-0.100000)"
fill="#000000" stroke="none">
<path d="M1975 4300 c-217 -31 -245 -38 -433 -106 -134 -48 -335 -144 -410
-195 -225 -155 -248 -174 -377 -309 -129 -135 -167 -182 -252 -312 -412 -626
-456 -1453 -112 -2106 74 -140 129 -233 145 -247 6 -5 42 -50 79 -100 92 -124
350 -362 455 -419 19 -11 51 -32 71 -47 67 -52 287 -154 424 -196 229 -70 352
-92 581 -100 385 -15 804 94 1127 293 305 188 595 484 743 759 20 39 45 84 55
101 29 53 108 257 139 361 57 193 84 429 76 654 -4 83 -8 154 -10 158 -2 3 -9
48 -15 99 -6 51 -22 127 -35 170 -13 42 -31 106 -41 142 -10 36 -31 90 -45
120 -15 30 -31 66 -35 80 -14 46 -75 164 -118 227 -23 34 -57 86 -76 117 -19
30 -49 71 -68 93 -19 21 -60 67 -91 102 -31 35 -60 69 -65 76 -4 8 -56 53
-115 102 -59 48 -122 102 -141 120 -19 18 -40 33 -46 33 -7 0 -15 7 -19 15 -3
8 -12 15 -21 15 -9 0 -55 24 -104 53 -49 30 -115 64 -147 77 -33 13 -83 34
-111 47 -82 37 -295 92 -438 113 -134 21 -459 26 -570 10z m233 -529 c-2 -3
-10 -18 -17 -33 -8 -16 -18 -28 -23 -28 -11 0 -10 17 2 25 16 10 12 25 -6 25
-13 0 -14 3 -5 14 11 13 56 11 49 -3z m-168 -6 c-10 -13 -15 -13 -21 -3 -6 9
-10 8 -15 -5 -8 -21 -24 -23 -24 -3 0 14 18 23 54 25 16 1 16 -1 6 -14z m291
-27 c5 -21 3 -27 -11 -31 -11 -3 -21 1 -24 9 -3 8 -1 14 5 14 6 0 8 9 4 21 -5
15 -3 20 6 17 7 -2 16 -16 20 -30z m-358 -8 c3 -13 0 -20 -9 -20 -8 0 -14 10
-14 26 0 28 15 25 23 -6z m162 20 c3 -5 1 -10 -4 -10 -6 0 -11 5 -11 10 0 6 2
10 4 10 3 0 8 -4 11 -10z m-35 -9 c0 -5 3 -18 6 -28 5 -16 4 -16 -10 1 -18 23
-20 36 -6 36 6 0 10 -4 10 -9z m-30 -16 c0 -8 -4 -15 -10 -15 -5 0 -10 7 -10
15 0 8 5 15 10 15 6 0 10 -7 10 -15z m160 10 c0 -2 -11 -15 -24 -28 -31 -31
-44 -22 -14 10 20 21 38 30 38 18z m32 -43 c-6 -2 -9 -9 -6 -16 3 -7 -2 -18
-9 -25 -12 -10 -14 -7 -13 17 1 15 8 35 16 44 14 15 15 15 19 0 2 -9 -1 -18
-7 -20z m-232 24 c0 -3 -4 -8 -10 -11 -5 -3 -10 -1 -10 4 0 6 5 11 10 11 6 0
10 -2 10 -4z m-68 -63 c11 -14 -6 -43 -25 -43 -7 0 -7 4 1 12 14 14 16 42 2
33 -5 -3 -10 2 -10 13 0 26 14 38 19 15 2 -10 8 -24 13 -30z m126 35 c-7 -19
-38 -22 -38 -4 0 10 9 16 21 16 12 0 19 -5 17 -12z m243 -18 c0 -16 1 -55 1
-85 0 -75 -1 -89 -7 -84 -4 5 -15 65 -17 97 -1 6 -7 12 -15 12 -16 0 -17 16
-2 25 6 4 8 14 5 22 -7 16 10 43 25 43 5 0 9 -13 10 -30z m-106 10 c3 -5 -1
-10 -10 -10 -9 0 -13 5 -10 10 3 6 8 10 10 10 2 0 7 -4 10 -10z m-75 -40 c-15
-28 -23 -20 -14 15 4 17 10 23 16 17 6 -6 6 -18 -2 -32z m-126 15 c-6 -16 -24
-21 -24 -7 0 11 11 22 21 22 5 0 6 -7 3 -15z m82 -10 c9 -8 11 -15 6 -15 -5 0
-15 7 -22 15 -7 8 -9 15 -6 15 4 0 14 -7 22 -15z m81 -10 c0 -8 -4 -15 -8 -15
-4 0 -9 7 -13 15 -3 9 0 15 8 15 7 0 13 -7 13 -15z m-116 -8 c-1 -4 -1 -16 -1
-28 0 -13 -4 -18 -12 -13 -18 11 -48 12 -48 2 0 -4 -4 -8 -10 -8 -5 0 -10 8
-10 19 0 22 40 36 52 18 5 -8 8 -6 8 6 0 10 5 17 11 15 6 -2 10 -7 10 -11z
m186 -39 c-3 -7 -5 -2 -5 12 0 14 2 19 5 13 2 -7 2 -19 0 -25z m-37 3 c0 -5
-7 -14 -15 -21 -16 -14 -18 -10 -9 14 6 17 24 22 24 7z m-164 -21 c21 -8 24
-14 16 -22 -26 -26 -3 -64 34 -57 5 1 16 1 24 0 20 -2 -29 -30 -52 -31 -10 0
-18 -4 -18 -9 0 -5 -11 -11 -24 -13 -17 -4 -26 0 -29 13 -3 12 3 19 25 23 17
3 35 3 42 0 6 -3 0 4 -14 16 -21 19 -25 20 -28 6 -2 -9 -12 -16 -22 -16 -21 0
-35 16 -21 24 5 4 11 2 13 -4 1 -5 8 2 15 16 17 37 -11 45 -38 11 -12 -16 -26
-24 -35 -20 -12 4 -10 9 8 24 13 10 29 23 36 29 7 6 17 8 22 5 6 -3 10 -1 10
4 0 13 2 14 36 1z m188 -34 c-13 -10 -22 -11 -29 -5 -7 7 -4 15 9 25 13 9 23
11 30 4 7 -7 3 -15 -10 -24z m-34 -16 c0 -5 -9 -14 -20 -20 -14 -7 -20 -7 -20
0 0 5 5 10 11 10 5 0 7 5 4 10 -3 6 1 10 9 10 9 0 16 -4 16 -10z m73 -5 c4 -8
2 -17 -3 -20 -6 -4 -10 3 -10 14 0 25 6 27 13 6z m-23 -21 c0 -8 -7 -14 -15
-14 -15 0 -21 21 -9 33 10 9 24 -2 24 -19z m-50 -24 c0 -5 -4 -10 -9 -10 -6 0
-13 5 -16 10 -3 6 1 10 9 10 9 0 16 -4 16 -10z m120 -4 c0 -9 -9 -13 -25 -11
-14 1 -28 -1 -30 -6 -3 -4 -19 -14 -35 -23 -26 -13 -30 -13 -30 0 0 8 8 17 18
20 9 3 26 10 37 14 54 23 65 24 65 6z m-160 -10 c0 -18 -30 -30 -43 -17 -9 9
11 23 41 30 1 1 2 -5 2 -13z m-170 -16 c0 -5 -4 -10 -10 -10 -5 0 -10 5 -10
10 0 6 5 10 10 10 6 0 10 -4 10 -10z m110 -5 c0 -9 -6 -12 -15 -9 -8 4 -15 2
-15 -4 0 -5 -9 -12 -20 -15 -31 -8 -23 8 13 26 17 8 33 16 35 16 1 1 2 -6 2
-14z m230 -3 c0 -15 -41 -53 -51 -47 -13 9 -23 -22 -13 -42 4 -10 9 -22 9 -28
1 -5 7 -23 14 -40 8 -20 9 -31 2 -33 -6 -2 -9 -8 -6 -12 3 -5 12 -7 20 -3 8 3
15 0 15 -6 0 -6 -9 -11 -20 -11 -11 0 -20 -6 -20 -13 0 -7 -11 -12 -27 -11
-17 0 -34 -8 -45 -20 -9 -12 -17 -16 -18 -9 0 11 27 35 66 59 11 7 15 15 11
20 -4 5 -12 2 -17 -6 -6 -8 -10 -12 -10 -8 0 4 -11 3 -25 -2 -39 -15 -31 8 10
27 39 18 49 45 13 35 -14 -3 -19 -2 -14 6 4 7 14 12 22 12 18 0 17 10 -1 34
-13 17 -15 18 -15 3 0 -9 -4 -17 -10 -17 -17 0 -11 19 10 32 23 15 27 43 5 34
-18 -7 -19 1 -2 18 23 23 97 44 97 28z m-159 -16 c5 3 9 0 9 -5 0 -6 -6 -11
-12 -12 -7 0 -26 -3 -41 -5 -19 -3 -26 -1 -22 6 3 6 10 8 15 5 4 -3 14 2 21
11 8 10 15 12 17 5 2 -6 8 -9 13 -5z m1179 0 c0 -3 -4 -8 -10 -11 -5 -3 -10
-1 -10 4 0 6 5 11 10 11 6 0 10 -2 10 -4z m-1345 -28 c-4 -10 -14 -14 -26 -11
-19 5 -19 6 3 18 27 14 30 13 23 -7z m1315 -2 c0 -7 -53 -68 -119 -135 -91
-93 -123 -120 -137 -115 -15 5 -16 4 -5 -4 12 -8 6 -20 -32 -62 -26 -29 -47
-56 -47 -62 0 -17 24 -35 42 -30 10 2 18 0 18 -5 0 -9 -45 -53 -55 -53 -2 0
-18 -12 -34 -27 -57 -54 -83 -73 -98 -73 -14 0 -13 3 3 21 19 22 19 22 -3 10
-19 -9 -23 -9 -23 2 0 8 7 20 15 27 12 10 18 10 30 0 13 -11 14 -10 9 3 -6 18
30 40 83 52 18 3 35 11 39 16 6 10 -25 5 -78 -11 -17 -6 -28 -5 -28 1 0 5 5 9
10 9 6 0 10 7 10 15 0 17 -4 18 -37 9 -13 -4 -21 -10 -18 -14 8 -13 -9 -20
-25 -9 -10 6 -11 9 -2 9 6 0 12 8 12 18 1 19 30 63 30 44 0 -7 5 -12 11 -12 6
0 9 7 5 15 -8 21 62 74 74 55 6 -9 3 -19 -8 -27 -15 -12 -14 -13 6 -3 12 6 20
15 17 20 -3 5 -1 12 5 15 6 4 8 15 5 25 -4 13 0 20 14 25 10 3 22 12 25 20 3
8 12 15 20 15 8 0 16 3 18 8 2 4 16 17 32 30 16 12 26 22 22 22 -4 0 -1 7 8
15 8 8 19 15 25 15 6 0 15 9 21 20 6 11 17 20 26 20 8 0 17 7 20 15 3 8 13 17
22 20 10 2 26 18 37 35 21 32 35 38 35 16z m-1110 -10 c0 -7 -9 -16 -20 -19
-22 -6 -29 18 -7 26 21 9 27 7 27 -7z m-140 -16 c0 -5 -7 -10 -15 -10 -8 0
-15 5 -15 10 0 6 7 10 15 10 8 0 15 -4 15 -10z m90 0 c0 -5 -4 -10 -10 -10 -5
0 -10 5 -10 10 0 6 5 10 10 10 6 0 10 -4 10 -10z m-1135 -10 c3 -5 1 -10 -4
-10 -6 0 -11 5 -11 10 0 6 2 10 4 10 3 0 8 -4 11 -10z m971 -17 c-10 -10 -19
5 -10 18 6 11 8 11 12 0 2 -7 1 -15 -2 -18z m-31 -1 c-3 -3 -15 -7 -28 -9 -21
-4 -21 -3 -2 11 18 13 44 12 30 -2z m101 -20 c-2 -9 -9 -18 -17 -20 -41 -11
-42 -12 -29 -27 7 -9 11 -16 9 -18 -63 -36 -69 -38 -69 -23 0 9 6 16 14 16 7
0 19 7 26 15 10 12 10 15 -1 15 -8 0 -5 8 8 23 11 12 19 27 16 33 -2 7 5 10
21 7 15 -3 23 -11 22 -21z m128 13 c-4 -8 -8 -15 -10 -15 -2 0 -4 7 -4 15 0 8
4 15 10 15 5 0 7 -7 4 -15z m16 -29 c0 -3 -4 -8 -10 -11 -5 -3 -10 -1 -10 4 0
6 5 11 10 11 6 0 10 -2 10 -4z m-240 -22 c0 -8 -4 -12 -10 -9 -5 3 -10 10 -10
16 0 5 5 9 10 9 6 0 10 -7 10 -16z m91 -36 c4 -110 3 -170 -3 -190 -5 -18 -6
-16 -7 13 -1 25 -7 39 -18 44 -17 6 -17 8 2 21 17 13 18 16 5 24 -12 8 -12 12
-2 18 9 6 10 16 4 33 -10 27 -5 59 9 59 5 0 9 -10 10 -22z m-41 -36 c0 -11 -8
-18 -20 -19 -12 -1 -20 4 -20 14 0 9 6 13 15 9 8 -3 15 -1 15 4 0 6 2 10 5 10
3 0 5 -8 5 -18z m314 -24 c8 -32 7 -38 -4 -38 -5 0 -10 9 -10 21 0 21 0 21
-19 -2 -15 -18 -22 -21 -31 -12 -9 8 -7 13 8 17 11 4 23 13 26 21 8 22 23 18
30 -7z m-372 -20 c-15 -15 -26 -4 -18 18 5 13 9 15 18 6 9 -9 9 -15 0 -24z
m299 -72 c-9 -19 -10 -17 -10 12 -1 29 -4 33 -22 27 -20 -7 -20 -6 -3 21 l18
27 14 -33 c10 -24 11 -39 3 -54z m-1031 64 c0 -5 -5 -10 -11 -10 -5 0 -7 5 -4
10 3 6 8 10 11 10 2 0 4 -4 4 -10z m742 -22 c-7 -7 -12 -8 -12 -2 0 14 12 26
19 19 2 -3 -1 -11 -7 -17z m338 -8 c0 -5 -4 -10 -10 -10 -5 0 -10 5 -10 10 0
6 5 10 10 10 6 0 10 -4 10 -10z m48 -20 c-13 -20 -28 -27 -28 -12 0 10 22 32
32 32 5 0 3 -9 -4 -20z m-48 -25 c0 -9 6 -12 18 -9 14 5 14 3 -3 -11 -18 -14
-20 -14 -23 -1 -2 9 -8 16 -13 16 -5 0 -9 5 -9 10 0 6 7 10 15 10 8 0 15 -7
15 -15z m-350 1 c0 -3 -4 -8 -10 -11 -5 -3 -10 -1 -10 4 0 6 5 11 10 11 6 0
10 -2 10 -4z m-550 -26 c0 -5 -4 -10 -10 -10 -5 0 -10 5 -10 10 0 6 5 10 10
10 6 0 10 -4 10 -10z m870 0 c0 -5 -2 -10 -4 -10 -3 0 -8 5 -11 10 -3 6 -1 10
4 10 6 0 11 -4 11 -10z m-240 -10 c0 -5 -11 -10 -25 -10 -14 0 -25 -3 -25 -8
0 -4 -9 -13 -19 -19 -16 -10 -18 -9 -14 6 7 29 83 57 83 31z m337 -31 c-27 -7
-37 -2 -37 17 0 17 16 19 23 2 3 -7 6 -4 6 6 1 20 1 20 15 0 13 -17 12 -20 -7
-25z m-997 21 c0 -5 -2 -10 -4 -10 -3 0 -8 5 -11 10 -3 6 -1 10 4 10 6 0 11
-4 11 -10z m937 -27 c-3 -2 -14 0 -24 7 -16 10 -16 11 0 6 9 -3 17 0 18 7 0 8
2 8 6 -1 3 -7 3 -16 0 -19z m-822 -24 c-4 -5 2 -9 11 -9 14 0 15 -3 6 -12 -8
-8 -15 -8 -26 1 -10 8 -16 9 -21 1 -7 -11 -25 -4 -25 10 0 5 7 7 15 4 8 -4 17
1 21 10 3 9 10 13 15 10 5 -3 7 -10 4 -15z m-102 -46 c-7 -2 -19 -2 -25 0 -7
3 -2 5 12 5 14 0 19 -2 13 -5z m97 -58 c0 -8 -4 -15 -10 -15 -5 0 -10 7 -10
15 0 8 5 15 10 15 6 0 10 -7 10 -15z m1345 -55 c7 -23 -10 -50 -31 -50 -7 0
-21 -11 -30 -25 -9 -14 -22 -25 -28 -25 -6 0 -19 -9 -29 -20 -9 -11 -23 -20
-31 -20 -7 0 -34 -20 -59 -45 -41 -40 -67 -55 -67 -40 0 9 40 45 50 45 6 0 10
6 10 13 0 6 23 22 50 34 49 22 60 35 39 48 -11 8 30 48 74 71 30 16 37 27 10
17 -11 -4 -14 -3 -9 5 12 19 44 14 51 -8z m-1225 -66 c0 -8 -5 -12 -10 -9 -6
4 -8 11 -5 16 9 14 15 11 15 -7z m30 -24 c0 -5 -4 -10 -10 -10 -5 0 -10 5 -10
10 0 6 5 10 10 10 6 0 10 -4 10 -10z m1060 -9 c0 -12 -20 -25 -27 -18 -7 7 6
27 18 27 5 0 9 -4 9 -9z m-1020 -31 c0 -5 -4 -10 -10 -10 -5 0 -10 5 -10 10 0
6 5 10 10 10 6 0 10 -4 10 -10z m45 -40 c3 -5 1 -10 -4 -10 -6 0 -11 5 -11 10
0 6 2 10 4 10 3 0 8 -4 11 -10z m1805 -50 c8 -13 10 -13 10 2 0 25 153 22 177
-4 22 -24 26 -258 5 -266 -9 -3 -11 3 -6 22 5 21 3 25 -9 20 -12 -4 -13 -11
-5 -35 5 -16 16 -29 23 -29 9 0 13 -29 14 -110 0 -72 -3 -110 -10 -110 -6 0
-4 -7 5 -15 20 -21 17 -182 -5 -196 -23 -14 -105 -11 -119 6 -10 12 -9 18 4
31 12 11 14 20 6 29 -12 15 -10 67 5 77 6 5 6 8 -2 8 -8 0 -10 12 -6 37 4 22
2 34 -3 30 -6 -3 -9 30 -9 86 1 51 -3 95 -8 98 -6 4 2 19 17 33 14 15 26 32
26 38 0 9 -3 9 -12 0 -16 -16 -33 -15 -19 1 6 8 8 17 4 20 -3 4 0 15 8 24 13
16 12 17 -2 5 -14 -11 -17 -9 -22 10 -4 12 -2 25 3 28 20 12 -16 37 -52 36
-48 -2 -61 -16 -65 -69 -1 -23 -3 -46 -4 -52 0 -5 2 -82 5 -169 4 -111 3 -163
-5 -172 -7 -8 -7 -14 -2 -14 6 0 11 -29 11 -65 1 -58 -1 -65 -18 -66 -28 -2
-33 -3 -48 -12 -17 -11 -27 19 -13 37 10 12 8 13 -8 9 -11 -3 -19 -10 -18 -16
1 -6 -6 -13 -15 -15 -13 -2 -18 3 -18 17 0 11 -5 23 -10 26 -8 5 -8 11 -1 19
6 7 8 16 4 19 -3 4 -1 7 6 7 7 0 9 -9 5 -26 -6 -24 -5 -25 14 -13 21 13 21 13
-5 37 -17 15 -22 27 -16 33 6 6 8 30 5 54 -2 24 0 58 6 75 7 18 7 28 2 25 -6
-4 -10 2 -10 13 0 18 63 58 87 54 6 -2 14 1 17 6 3 5 -5 8 -17 7 -33 -3 -67
-16 -67 -26 0 -5 -7 -9 -15 -9 -8 0 -15 7 -15 15 0 8 7 15 15 15 20 0 19 10
-2 26 -15 10 -16 17 -7 43 7 16 9 33 6 36 -3 3 -8 29 -9 58 -5 78 -5 91 5 95
19 6 47 31 41 36 -3 3 -19 -5 -35 -19 -24 -21 -37 -24 -76 -21 -26 3 -53 8
-60 11 -7 4 -3 -2 9 -13 12 -11 19 -22 16 -26 -4 -3 -6 -55 -4 -114 6 -285 5
-402 -1 -402 -5 0 -8 9 -8 21 0 12 -5 19 -12 16 -7 -2 -12 -14 -10 -25 2 -12
-2 -22 -7 -22 -6 0 -11 -4 -11 -10 0 -6 9 -6 25 0 20 8 27 6 31 -5 9 -23 -11
-40 -45 -39 -51 2 -53 3 -46 22 4 12 1 11 -15 -5 -28 -30 -40 -29 -40 4 0 14
3 24 6 20 3 -3 16 5 28 17 11 13 28 26 36 30 8 3 2 4 -14 0 -17 -3 -36 -13
-44 -22 -12 -15 -13 -14 -8 8 3 14 6 33 6 43 0 10 12 29 26 42 21 19 23 25 10
25 -9 0 -16 -4 -16 -9 0 -5 -7 -12 -16 -15 -13 -5 -15 -1 -9 21 3 15 12 31 18
35 9 6 9 8 1 8 -19 0 -26 60 -9 77 19 18 20 29 2 14 -20 -16 -23 -8 -19 44 3
38 9 48 30 58 l25 12 -24 5 c-13 3 -25 13 -27 23 -3 13 3 15 27 12 17 -2 31 1
31 6 0 6 -10 9 -22 7 -15 -2 -23 2 -23 12 0 8 6 14 13 13 6 -2 12 6 12 16 0
11 7 26 15 35 8 8 15 19 15 24 0 6 7 13 16 16 9 4 14 9 11 13 -4 3 -12 1 -19
-4 -7 -5 -21 -13 -31 -16 -15 -6 -18 -2 -15 16 2 14 10 22 23 22 14 0 21 8 23
28 2 15 7 27 11 27 13 0 60 47 54 54 -4 3 -1 6 5 6 7 0 21 -9 32 -20 11 -11
20 -16 20 -11 0 9 98 6 107 -3 3 -3 15 5 27 17 26 26 82 30 96 7z m-980 -29
c0 -5 -16 -18 -35 -30 -42 -24 -45 -19 -7 14 29 26 42 31 42 16z m645 -1 c-3
-5 -11 -10 -16 -10 -6 0 -7 5 -4 10 3 6 11 10 16 10 6 0 7 -4 4 -10z m-2145
-30 c0 -5 -4 -10 -10 -10 -5 0 -10 5 -10 10 0 6 5 10 10 10 6 0 10 -4 10 -10z
m2080 0 c0 -5 -7 -10 -15 -10 -8 0 -15 5 -15 10 0 6 7 10 15 10 8 0 15 -4 15
-10z m-14 -57 c0 -21 2 -51 5 -67 5 -35 -16 -47 -25 -14 -11 42 -7 118 7 118
7 0 12 -14 13 -37z m-1926 -159 c0 -8 -4 -12 -10 -9 -5 3 -10 10 -10 16 0 5 5
9 10 9 6 0 10 -7 10 -16z m-15 -104 c3 -6 -1 -7 -9 -4 -18 7 -21 14 -7 14 6 0
13 -4 16 -10z m1305 -260 c0 -5 -2 -10 -4 -10 -3 0 -8 5 -11 10 -3 6 -1 10 4
10 6 0 11 -4 11 -10z m-600 -15 c0 -8 -84 -85 -93 -85 -13 0 17 40 34 45 9 3
24 14 34 25 18 20 25 24 25 15z m651 -26 c11 -5 17 -14 14 -20 -9 -14 -25 -11
-25 5 0 8 -8 17 -17 19 -10 3 -12 5 -5 6 7 0 22 -4 33 -10z m88 -68 c20 -16
31 -33 27 -39 -8 -13 -56 29 -56 48 0 6 -4 8 -10 5 -5 -3 -10 -1 -10 4 0 17
12 13 49 -18z m-1459 -1 c0 -5 -5 -10 -11 -10 -5 0 -7 5 -4 10 3 6 8 10 11 10
2 0 4 -4 4 -10z m606 -22 c-10 -5 -25 -19 -34 -29 -9 -10 -20 -19 -25 -19 -5
0 -2 6 5 14 7 8 22 26 32 40 14 19 22 24 30 16 8 -8 6 -14 -8 -22z m942 -47
c27 -24 28 -31 2 -31 -11 0 -20 4 -20 9 0 5 -7 17 -16 25 -23 23 5 20 34 -3z
m-1018 -21 c0 -12 -42 -51 -48 -45 -4 4 38 54 46 55 1 0 2 -4 2 -10z m1095
-51 c-5 9 -4 12 3 7 6 -4 8 -14 5 -23 -4 -10 -2 -14 5 -9 19 12 92 -24 98 -49
3 -14 11 -22 19 -19 19 8 45 -24 45 -54 1 -24 2 -25 13 -11 11 15 16 15 40 2
15 -7 25 -18 22 -23 -3 -6 1 -7 9 -4 21 8 20 -5 -1 -28 -23 -25 -36 -22 -29 7
7 27 -2 32 -24 13 -12 -11 -12 -10 -1 5 21 26 -13 23 -39 -5 -24 -26 -40 -16
-21 13 11 19 10 20 -11 14 -22 -7 -22 -6 -4 8 20 15 16 54 -4 42 -6 -4 -8 -11
-5 -16 4 -5 -1 -9 -9 -9 -15 0 -20 11 -17 38 2 15 -26 16 -31 0 -2 -6 -9 -8
-16 -4 -19 12 -2 37 22 31 21 -6 21 -6 1 10 -12 9 -21 12 -23 5 -2 -5 -10 -10
-18 -10 -9 0 -12 5 -9 11 4 6 1 9 -7 7 -7 -2 -14 0 -16 5 -1 4 -14 18 -28 31
-20 17 -25 28 -20 42 7 17 10 17 33 -11 14 -16 22 -24 18 -16z m-1195 -49
c-18 -11 -22 -7 -14 14 5 13 10 14 18 6 8 -8 7 -13 -4 -20z m-90 -80 c0 -5 -5
-10 -11 -10 -5 0 -7 5 -4 10 3 6 8 10 11 10 2 0 4 -4 4 -10z m-30 -64 c0 -11
-19 -15 -25 -6 -3 5 1 10 9 10 9 0 16 -2 16 -4z m1421 -6 c25 -14 25 -40 -1
-40 -11 0 -20 5 -20 11 0 7 -8 18 -17 25 -17 13 -17 13 0 14 10 0 27 -5 38
-10z m99 -26 c0 -9 77 -91 170 -183 94 -92 170 -173 170 -181 0 -7 -13 -2 -32
14 -18 15 -41 29 -50 33 -10 3 -18 12 -18 20 0 8 -9 17 -20 20 -11 3 -20 14
-20 25 0 10 -6 18 -12 16 -20 -3 -75 35 -71 50 3 6 -3 12 -12 12 -9 0 -15 6
-14 13 4 30 -2 37 -26 33 -17 -3 -25 0 -25 9 0 9 -6 12 -16 8 -14 -5 -16 -1
-12 20 3 15 1 27 -3 27 -5 0 -10 -8 -10 -17 -1 -16 -2 -16 -6 -2 -3 11 -11 15
-24 12 -10 -3 -19 0 -19 6 0 6 7 11 15 11 8 0 15 5 15 11 0 6 -7 8 -15 5 -8
-3 -22 -9 -31 -13 -12 -4 -15 -2 -12 8 2 8 15 15 27 17 17 3 22 9 18 23 -4 14
0 19 14 19 11 0 19 -7 19 -16z m-766 -34 c-5 -5 -21 -12 -36 -15 -21 -5 -28
-3 -28 7 0 10 12 15 37 16 22 1 33 -2 27 -8z m116 6 c0 -2 -7 -6 -15 -10 -8
-3 -15 -1 -15 4 0 6 7 10 15 10 8 0 15 -2 15 -4z m54 -11 c6 -17 -2 -45 -13
-45 -4 0 -8 14 -8 30 0 32 11 40 21 15z m-128 -24 c-9 -14 -56 -15 -56 -1 0 6
9 10 20 10 11 0 20 5 20 12 0 9 3 9 11 1 6 -6 8 -16 5 -22z m-826 4 c0 -8 -4
-15 -10 -15 -5 0 -10 7 -10 15 0 8 5 15 10 15 6 0 10 -7 10 -15z m655 -15 c3
-5 -1 -10 -9 -10 -9 0 -16 5 -16 10 0 6 4 10 9 10 6 0 13 -4 16 -10z m105 -5
c0 -8 -4 -15 -10 -15 -5 0 -10 7 -10 15 0 8 5 15 10 15 6 0 10 -7 10 -15z
m-821 -36 c-13 -25 -17 -24 -15 5 0 14 6 22 13 19 9 -4 10 -10 2 -24z m931 15
c0 -13 -3 -14 -14 -5 -8 7 -17 8 -20 3 -3 -6 -18 -13 -32 -16 -15 -4 -39 -20
-55 -37 -34 -36 -39 -36 -36 0 2 22 5 27 15 19 9 -8 17 -5 30 9 15 17 67 39
100 42 6 1 12 -6 12 -15z m-182 -6 c-6 -18 -28 -21 -28 -4 0 9 7 16 16 16 9 0
14 -5 12 -12z m267 -3 c0 -5 -10 -11 -22 -13 -16 -2 -23 2 -23 13 0 11 7 15
23 13 12 -2 22 -7 22 -13z m-1046 -39 c1 -6 -5 -1 -13 9 -8 11 -12 24 -8 29 5
9 20 -17 21 -38z m701 40 c0 -3 -4 -8 -10 -11 -5 -3 -10 -1 -10 4 0 6 5 11 10
11 6 0 10 -2 10 -4z m269 -47 c-15 -15 -24 -19 -27 -10 -3 8 -8 9 -16 2 -7 -6
-17 -6 -26 -1 -13 8 -13 10 1 10 9 0 20 8 23 17 6 15 8 15 17 3 9 -13 12 -13
22 2 6 10 15 14 20 9 5 -5 -1 -19 -14 -32z m59 -17 c-29 -5 -34 6 -12 22 17
13 20 12 25 -2 4 -12 0 -18 -13 -20z m-233 18 c-3 -5 -10 -10 -16 -10 -5 0 -9
5 -9 10 0 6 7 10 16 10 8 0 12 -4 9 -10z m-815 -10 c0 -5 -4 -10 -10 -10 -5 0
-10 5 -10 10 0 6 5 10 10 10 6 0 10 -4 10 -10z m760 -20 c0 -5 -4 -10 -10 -10
-5 0 -10 5 -10 10 0 6 5 10 10 10 6 0 10 -4 10 -10z m50 -41 c0 -13 -33 -19
-45 -9 -6 5 -16 6 -20 2 -5 -4 -5 -1 -1 6 4 6 16 12 27 12 10 0 19 6 19 13 0
12 20 -11 20 -24z m-87 -32 c-3 -5 -10 -4 -15 1 -6 6 -7 16 -3 22 6 9 9 9 16
-1 4 -7 5 -17 2 -22z m-805 18 c-2 -1 -12 -7 -24 -13 -15 -8 -21 -8 -21 1 0 7
11 13 24 13 14 1 23 1 21 -1z m862 -24 c0 -12 -20 -25 -27 -18 -7 7 6 27 18
27 5 0 9 -4 9 -9z m30 -43 c0 -57 -11 -85 -29 -74 -8 5 -8 13 1 29 7 12 11 28
9 36 -3 16 7 61 14 61 3 0 5 -24 5 -52z m-85 2 c3 -5 -3 -10 -15 -10 -12 0
-18 5 -15 10 3 6 10 10 15 10 5 0 12 -4 15 -10z m25 -32 c0 -9 4 -8 11 2 7 10
9 11 7 2 -2 -8 -7 -13 -11 -13 -4 1 -14 1 -22 1 -8 0 -15 5 -15 10 0 6 7 10
15 10 8 0 15 -6 15 -12z m-30 -28 c0 -5 -4 -10 -9 -10 -6 0 -13 5 -16 10 -3 6
1 10 9 10 9 0 16 -4 16 -10z m30 -25 c-14 -17 -30 -20 -30 -6 0 5 8 12 18 14
9 3 19 5 21 6 2 0 -2 -6 -9 -14z m-62 -36 c-20 -13 -28 -11 -22 5 3 8 12 12
21 9 12 -5 12 -7 1 -14z m1362 11 c0 -5 -2 -10 -4 -10 -3 0 -8 5 -11 10 -3 6
-1 10 4 10 6 0 11 -4 11 -10z m-1243 -92 c-4 -30 -5 -31 -12 -11 -4 12 -17 26
-29 29 -20 7 -20 8 4 14 18 4 26 14 30 35 l4 30 4 -32 c2 -18 1 -48 -1 -65z
m-97 38 c0 -3 -4 -8 -10 -11 -5 -3 -10 -1 -10 4 0 6 5 11 10 11 6 0 10 -2 10
-4z m0 -38 c0 -22 -17 -41 -29 -34 -15 10 -14 33 2 39 21 9 27 8 27 -5z m51
-25 c-12 -20 -14 -14 -5 12 4 9 9 14 11 11 3 -2 0 -13 -6 -23z m-71 -43 c0 -5
-4 -10 -10 -10 -5 0 -10 5 -10 10 0 6 5 10 10 10 6 0 10 -4 10 -10z m38 -36
c-9 -9 -21 -13 -28 -9 -9 6 -6 12 11 21 29 15 38 9 17 -12z m94 -28 c1 -16 -2
-31 -7 -33 -6 -2 -10 14 -10 37 0 44 11 41 17 -4z m-77 -5 c-3 -6 -11 -11 -17
-11 -6 0 -6 6 2 15 14 17 26 13 15 -4z m220 -34 c-1 -23 -5 -48 -9 -55 -12
-20 35 -14 50 6 10 12 13 13 14 3 0 -7 -11 -24 -25 -37 -14 -13 -25 -19 -25
-14 0 6 -7 10 -16 10 -12 0 -14 9 -11 44 5 41 4 43 -19 40 -13 -1 -24 2 -24 7
0 5 11 9 24 9 13 0 26 7 30 15 9 24 12 18 11 -28z m60 16 c-3 -41 -4 -43 -20
-36 -14 5 -14 8 1 24 10 11 12 19 6 19 -7 0 -12 5 -12 10 0 6 6 10 14 10 8 0
12 -10 11 -27z m45 -9 c0 -21 -4 -33 -10 -29 -5 3 -10 1 -10 -5 0 -6 6 -13 14
-16 8 -3 13 -13 11 -22 -2 -9 -4 -24 -4 -34 -1 -11 -7 -15 -21 -11 -21 6 -28
33 -8 33 9 0 9 3 0 12 -14 14 -16 58 -3 58 5 0 12 11 15 25 9 36 16 31 16 -11z
m-375 -3 c-3 -6 -11 -11 -17 -11 -6 0 -6 6 2 15 14 17 26 13 15 -4z m195 -21
c0 -5 -4 -10 -10 -10 -5 0 -10 5 -10 10 0 6 5 10 10 10 6 0 10 -4 10 -10z
m-90 -35 c-7 -8 -19 -15 -27 -15 -13 0 -13 3 -3 15 7 8 19 15 27 15 13 0 13
-3 3 -15z m-70 -35 c0 -5 -5 -10 -11 -10 -5 0 -7 -4 -4 -10 3 -5 1 -10 -4 -10
-13 0 -13 3 -5 24 7 18 24 22 24 6z m98 -7 c-5 -26 -33 -28 -35 -3 -1 14 4 20
18 20 14 0 19 -6 17 -17z m92 -13 c12 -8 11 -10 -7 -10 -13 0 -23 5 -23 10 0
13 11 13 30 0z"/>
<path d="M2040 3544 c0 -8 5 -12 10 -9 6 4 8 11 5 16 -9 14 -15 11 -15 -7z"/>
<path d="M2933 3042 c-7 -4 -9 -13 -4 -21 6 -9 10 -7 14 8 3 12 4 21 4 21 -1
0 -7 -4 -14 -8z"/>
<path d="M2740 2745 c-8 -9 -8 -15 -2 -15 12 0 26 19 19 26 -2 2 -10 -2 -17
-11z"/>
<path d="M3502 2564 c13 -13 20 -14 34 -4 18 10 17 11 -3 7 -13 -3 -23 -1 -23
4 0 5 -5 9 -12 9 -8 0 -7 -6 4 -16z"/>
<path d="M3589 2550 c-15 -17 -23 -30 -19 -30 12 0 40 29 40 41 0 5 5 9 11 9
5 0 7 -4 4 -10 -3 -5 -1 -10 5 -10 13 0 8 22 -6 26 -5 2 -21 -10 -35 -26z"/>
<path d="M3245 2540 c-3 -6 1 -7 9 -4 18 7 21 14 7 14 -6 0 -13 -4 -16 -10z"/>
<path d="M3315 2530 c-3 -5 -1 -10 4 -10 6 0 11 5 11 10 0 6 -2 10 -4 10 -3 0
-8 -4 -11 -10z"/>
<path d="M3657 2502 c-9 -10 -14 -21 -11 -25 9 -8 36 21 32 34 -2 6 -11 2 -21
-9z"/>
<path d="M3442 2470 c-10 -17 -10 -20 3 -20 8 0 15 9 15 20 0 11 -1 20 -3 20
-1 0 -8 -9 -15 -20z"/>
<path d="M3675 2469 c-4 -6 -5 -12 -2 -15 2 -3 7 2 10 11 7 17 1 20 -8 4z"/>
<path d="M3371 2446 c-8 -9 -8 -16 -2 -20 6 -4 15 3 21 14 12 23 -2 27 -19 6z"/>
<path d="M3685 2430 c3 -5 8 -10 11 -10 2 0 4 5 4 10 0 6 -5 10 -11 10 -5 0
-7 -4 -4 -10z"/>
<path d="M3191 2421 c-8 -5 -9 -11 -3 -15 5 -3 12 1 16 9 6 17 6 18 -13 6z"/>
<path d="M3390 2400 c0 -5 5 -10 10 -10 6 0 10 5 10 10 0 6 -4 10 -10 10 -5 0
-10 -4 -10 -10z"/>
<path d="M3440 2400 c0 -5 7 -7 15 -4 8 4 15 8 15 10 0 2 -7 4 -15 4 -8 0 -15
-4 -15 -10z"/>
<path d="M3211 2371 c-7 -5 -11 -15 -9 -22 3 -10 8 -7 17 9 13 24 12 26 -8 13z"/>
<path d="M3635 2299 c-4 -6 -5 -12 -2 -15 2 -3 7 2 10 11 7 17 1 20 -8 4z"/>
<path d="M3200 2273 c0 -10 4 -14 8 -8 4 6 11 13 16 18 5 4 2 7 -7 7 -10 0
-17 -8 -17 -17z"/>
<path d="M3163 2253 c-16 -6 -17 -33 -3 -33 11 0 26 28 19 34 -2 2 -10 1 -16
-1z"/>
<path d="M3395 2250 c-3 -5 -1 -10 4 -10 6 0 11 5 11 10 0 6 -2 10 -4 10 -3 0
-8 -4 -11 -10z"/>
<path d="M3208 2208 c2 -10 6 -18 7 -18 1 0 5 8 7 18 3 11 0 19 -7 19 -7 0
-10 -8 -7 -19z"/>
<path d="M3120 2210 c0 -5 5 -10 10 -10 6 0 10 5 10 10 0 6 -4 10 -10 10 -5 0
-10 -4 -10 -10z"/>
<path d="M3636 2187 c3 -10 9 -15 12 -12 3 3 0 11 -7 18 -10 9 -11 8 -5 -6z"/>
<path d="M3150 2183 c0 -15 18 -35 27 -32 5 2 1 12 -9 22 -10 9 -18 14 -18 10z"/>
<path d="M3164 2109 c0 -14 5 -19 18 -16 11 3 18 0 18 -9 0 -8 8 -14 18 -14
14 0 14 2 3 9 -8 5 -11 16 -8 26 5 12 2 15 -11 13 -9 -1 -22 0 -27 4 -6 4 -11
-2 -11 -13z"/>
<path d="M3686 2117 c3 -10 9 -15 12 -12 3 3 0 11 -7 18 -10 9 -11 8 -5 -6z"/>
<path d="M3386 2095 c-3 -8 -1 -15 4 -15 6 0 10 7 10 15 0 8 -2 15 -4 15 -2 0
-6 -7 -10 -15z"/>
<path d="M3165 2070 c3 -5 8 -10 11 -10 2 0 4 5 4 10 0 6 -5 10 -11 10 -5 0
-7 -4 -4 -10z"/>
<path d="M3696 2064 c-9 -24 -2 -26 12 -4 7 11 8 20 3 20 -5 0 -12 -7 -15 -16z"/>
<path d="M3385 2039 c-4 -6 -5 -12 -2 -15 2 -3 7 2 10 11 7 17 1 20 -8 4z"/>
<path d="M3181 2014 c-13 -13 -27 -24 -31 -24 -4 0 -11 -7 -14 -16 -6 -15 -3
-14 21 1 57 36 62 41 55 52 -5 8 -15 4 -31 -13z"/>
<path d="M3660 2009 c0 -5 5 -7 10 -4 6 3 10 8 10 11 0 2 -4 4 -10 4 -5 0 -10
-5 -10 -11z"/>
<path d="M3656 1955 c-3 -8 -1 -15 4 -15 13 0 22 18 11 24 -5 3 -11 -1 -15 -9z"/>
</g>
</svg>
